<svg data-v-0dd9719b="" version="1.0" xmlns="http://www.w3.org/2000/svg" xmlns:xlink="http://www.w3.org/1999/xlink" width="100%" height="100%" viewBox="0 0 340.000000 250.000000" preserveAspectRatio="xMidYMid meet" color-interpolation-filters="sRGB" style="margin: auto;"> <rect data-v-0dd9719b="" x="0" y="0" width="100%" height="100%" fill="#ffffff" fill-opacity="1" class="background"></rect> <rect data-v-0dd9719b="" x="0" y="0" width="100%" height="100%" fill="url(#watermark)" fill-opacity="1" class="watermarklayer"></rect> <g data-v-0dd9719b="" fill="#ff3100" class="icon-text-wrapper icon-svg-group iconsvg" transform="translate(49.20000457763672,90.71389389038086)"><g class="iconsvg-imagesvg" transform="translate(0,0)"><g><rect fill="#ff3100" fill-opacity="0" stroke-width="2" x="0" y="0" width="59.99999999999999" height="68.57221225385432" class="image-rect"></rect> <svg filter="url(#colors778962425)" x="0" y="0" width="59.99999999999999" height="68.57221225385432" filtersec="colorsf9829601843" class="image-svg-svg primary" style="overflow: visible;"><svg version="1.1" id="图层_1" xmlns="http://www.w3.org/2000/svg" xmlns:xlink="http://www.w3.org/1999/xlink" x="0px" y="0px" viewBox="1.25 1 97.5 111.43000030517578" enable-background="new 0 0 100 113.12" xml:space="preserve">
<polygon fill="#0F0E0E" points="79.98,35.04 50,17.48 20.02,35.04 5.95,26.79 50,1 94.05,26.79 "></polygon>
<polygon fill="#0F0E0E" points="29.39,75.64 50,63.58 70.6,75.65 50,87.71 "></polygon>
<polygon fill="#0F0E0E" points="54.69,31.21 75.3,43.28 75.3,67.41 54.69,55.35 "></polygon>
<polygon fill="#0F0E0E" points="45.31,55.34 24.71,67.4 24.71,43.28 45.31,31.21 "></polygon>
<polygon fill="#0F0E0E" points="98.74,86.64 54.69,112.43 54.69,95.95 84.68,78.39 84.68,43.27 98.75,35.03 98.75,86.62 "></polygon>
<polygon fill="#0F0E0E" points="15.32,43.27 15.32,78.39 45.31,95.94 45.31,112.43 1.25,86.63 1.25,35.03 "></polygon>
</svg></svg> <defs><filter id="colors778962425"><feColorMatrix type="matrix" values="0 0 0 0 0.99609375  0 0 0 0 0.19140625  0 0 0 0 0  0 0 0 1 0" class="icon-fecolormatrix"></feColorMatrix></filter> <filter id="colorsf9829601843"><feColorMatrix type="matrix" values="0 0 0 0 0.99609375  0 0 0 0 0.99609375  0 0 0 0 0.99609375  0 0 0 1 0" class="icon-fecolormatrix"></feColorMatrix></filter> <filter id="colorsb8183951647"><feColorMatrix type="matrix" values="0 0 0 0 0  0 0 0 0 0  0 0 0 0 0  0 0 0 1 0" class="icon-fecolormatrix"></feColorMatrix></filter></defs></g></g> <g transform="translate(67,6.289857864379883)"><g data-gra="path-name" fill-rule="" class="tp-name iconsvg-namesvg" transform="translate(0,0)"><g transform="scale(1)"><g><path d="M24.7-19.93L42.8-19.93 42.8-17.68Q42.8-17.41 42.59-17.21 42.39-17.01 42.12-17.01L42.12-17.01 2.07-17.01 2.07-19.93 19.75-19.93 19.75-22.5 6.34-22.5 6.34-32.85 19.75-32.85 19.75-36.23 24.7-36.23 24.7-32.85 38.7-32.85 38.7-27.22Q38.7-22.5 33.98-22.5L33.98-22.5 24.7-22.5 24.7-19.93ZM11.29-25.43L19.75-25.43 19.75-29.92 11.29-29.92 11.29-25.43ZM33.75-29.92L24.7-29.92 24.7-25.43 32.17-25.43Q33.75-25.43 33.75-27L33.75-27 33.75-29.92ZM37.39-2.21L33.12-2.21 33.12-11.65 11.88-11.65 11.88-2.88Q11.88-2.61 11.68-2.41 11.47-2.21 11.21-2.21L11.21-2.21 6.93-2.21 6.93-14.58 38.07-14.58 38.07-2.88Q38.07-2.61 37.87-2.41 37.66-2.21 37.39-2.21L37.39-2.21ZM24.97-8.5Q24.97-5.8 27.83-3.69 30.69-1.57 34.56-0.22 38.43 1.13 41.85 1.75L41.85 1.75 41.85 4.68Q36.45 4 30.98 2.29 25.52 0.58 22.5-2.56L22.5-2.56Q19.48 0.58 14.02 2.29 8.55 4 3.15 4.68L3.15 4.68 3.15 1.75Q6.57 1.13 10.44-0.22 14.31-1.57 17.17-3.69 20.02-5.8 20.02-8.5L20.02-8.5 20.02-10.71 24.97-10.71 24.97-8.5ZM80.19-35.32L85.14-35.32 85.14 3.42Q85.14 3.69 84.94 3.89 84.73 4.09 84.47 4.09L84.47 4.09 80.19 4.09 80.19-12.82 76.95-12.82Q76.63-14.35 75.47-17.53 74.3-20.7 72.54-23.36L72.54-23.36 72.54 2.52Q72.54 2.79 72.34 2.99 72.13 3.19 71.86 3.19L71.86 3.19 67.59 3.19 67.59-12.82 64.89-12.82Q64.53-14.45 63.34-17.71 62.14-20.97 60.3-23.58L60.3-23.58 60.3-18.9Q60.3-8.5 57.87-3.13 55.44 2.25 50.67 4.59L50.67 4.59 50.67 1.21Q55.35-2.97 55.35-18.99L55.35-18.99 55.35-35.32 60.3-35.32 60.3-24.88 64.26-24.88Q66.02-22.36 67.59-17.01L67.59-17.01 67.59-34.42 72.54-34.42 72.54-24.88 76.32-24.88Q77.58-23.09 78.48-20.59 79.38-18.09 80.19-15.03L80.19-15.03 80.19-35.32ZM50.67-11.34L46.84-11.34Q47.43-11.97 48.24-14.67 49.05-17.37 49.66-20.38 50.27-23.4 50.22-24.84L50.22-24.84 55.17-24.84Q54.77-21.64 53.39-17.14 52.02-12.64 50.67-11.34L50.67-11.34ZM106.83-6.97L106.83-3.38Q105.25-1.48 103.48 0.4 101.7 2.29 101.2 2.56L101.2 2.56 101.16 2.48 101.16 2.56 96.66 2.56 96.66-20.93Q94.45-18.04 91.62-16.2L91.62-16.2 91.62-19.13Q92.88-20.2 94.12-23.36 95.36-26.5 96.14-30.15 96.93-33.8 96.93-36.23L96.93-36.23 101.88-36.23Q101.7-32.85 100.8-29.47L100.8-29.47 108.5-29.47 108.5-26.55Q106.38-20.84 104.22-19.3L104.22-19.3 101.3-19.3Q102.24-20.47 102.91-22.39 103.59-24.3 103.91-26.55L103.91-26.55 99.81-26.55Q98.64-23.71 97.02-21.42L97.02-21.42 101.16-21.42 101.16-2.16Q102.69-2.97 104.24-4.32 105.8-5.67 106.83-6.97L106.83-6.97ZM124.38-6.61Q128.12-1.71 132.93 1.57L132.93 1.57 132.93 4.5Q126.63 2.07 121.72-3.46L121.72-3.46Q116.37 2.34 109.98 4.81L109.98 4.81 109.98 1.89Q115.2-2.02 119.07-6.79L119.07-6.79Q115.92-11.29 114.03-16.47L114.03-16.47Q113.81-10.44 112.57-6.61 111.33-2.79 109.42-0.45 107.5 1.89 104.22 4.68L104.22 4.68 104.22 1.3Q107.1-1.98 108.11-6.68 109.13-11.38 109.13-18.99L109.13-18.99 109.13-34.2 125.5-34.2Q127.39-34.2 131.53-35.19L131.53-35.19 131.53-32.67Q131.53-32.45 131.4-32.27 131.26-32.09 131.09-32.04L131.09-32.04Q130.14-31.72 128.79-31.5 127.44-31.27 126.63-31.27L126.63-31.27 114.08-31.27 114.08-24.07 131.53-24.07 131.53-21.15Q130.68-17.73 128.84-13.93 126.99-10.13 124.38-6.61L124.38-6.61ZM118.44-18.09Q119.56-14.45 121.72-10.57L121.72-10.57Q124.78-15.52 126.36-21.15L126.36-21.15 114.08-21.15 114.08-18.9 114.08-18.09 118.44-18.09ZM176.67-30.69L176.67-23.22Q176.67-22.95 176.47-22.75 176.26-22.54 176-22.54L176-22.54 171.72-22.54 171.72-27.77 160.11-27.77 160.11-21.78Q160.11-21.51 159.91-21.31 159.7-21.11 159.44-21.11L159.44-21.11 155.16-21.11 155.16-27.77 143.32-27.77 143.32-23.22Q143.32-22.95 143.12-22.75 142.92-22.54 142.65-22.54L142.65-22.54 138.38-22.54 138.38-30.69 155.16-30.69 155.16-32.35 140.53-32.35 140.53-35.28 174.33-35.28 174.33-33.03Q174.33-32.76 174.13-32.56 173.93-32.35 173.66-32.35L173.66-32.35 160.11-32.35 160.11-30.69 176.67-30.69ZM153.9-24.93Q153.9-24.66 153.7-24.46 153.5-24.25 153.22-24.25L153.22-24.25 144.5-24.25 144.5-26.73 153.9-26.73 153.9-24.93ZM170.73-24.93Q170.73-24.66 170.53-24.46 170.32-24.25 170.06-24.25L170.06-24.25 161.32-24.25 161.32-26.73 170.73-26.73 170.73-24.93ZM144.5-20.88L144.5-23.36 153.9-23.36 153.9-21.55Q153.9-21.29 153.7-21.08 153.5-20.88 153.22-20.88L153.22-20.88 144.5-20.88ZM161.32-20.88L161.32-23.36 170.73-23.36 170.73-21.55Q170.73-21.29 170.53-21.08 170.32-20.88 170.06-20.88L170.06-20.88 161.32-20.88ZM157.81 0.63L150.79 0.63 150.79 4Q150.79 4.27 150.59 4.48 150.39 4.68 150.12 4.68L150.12 4.68 146.29 4.68 146.29 0.63 137.61 0.63 137.61-1.84 146.29-1.84 146.29-2.97 138.87-2.97 138.87-10.21 146.29-10.21 146.29-11.7 141.21-11.7 141.21-15.84 137.66-15.84 137.66-18.77 141.21-18.77 141.21-20.25 145.71-20.25 145.71-18.77 151.43-18.77 151.43-20.25 155.93-20.25 155.93-18.77 158.81-18.77 158.81-16.52Q158.81-16.25 158.6-16.04 158.4-15.84 158.13-15.84L158.13-15.84 155.93-15.84 155.93-12.38Q155.93-12.11 155.72-11.9 155.52-11.7 155.25-11.7L155.25-11.7 150.79-11.7 150.79-10.21 158.53-10.21 158.53-6.93Q158.53-4.68 157.41-3.82 156.28-2.97 153.81-2.97L153.81-2.97 150.79-2.97 150.79-1.84 158.49-1.84 158.49-0.04Q158.49 0.22 158.29 0.43 158.09 0.63 157.81 0.63L157.81 0.63ZM176-19.04L176-1.08Q176 3.65 171.27 3.65L171.27 3.65 167 3.65 167 0.72 169.47 0.72Q171.05 0.72 171.05-0.85L171.05-0.85 171.05-3.19 164.38-3.19Q163.53-0.27 161.84 1.62 160.16 3.51 157.54 4.77L157.54 4.77 157.54 1.84Q157.68 1.67 158.49 0.72 159.3-0.22 159.75-2.16 160.2-4.09 160.2-6.93L160.2-6.93 160.2-19.04 176-19.04ZM171.05-16.11L165.15-16.11 165.15-12.64 171.05-12.64 171.05-16.11ZM151.43-15.84L145.71-15.84 145.71-14.17 151.43-14.17 151.43-15.84ZM164.97-6.12L171.05-6.12 171.05-9.72 165.15-9.72 165.15-9.63Q165.15-7.56 164.97-6.12L164.97-6.12ZM143.37-5.44L146.29-5.44 146.29-7.74 143.37-7.74 143.37-5.44ZM154.03-7.74L150.79-7.74 150.79-5.44 152.46-5.44Q154.03-5.44 154.03-7.02L154.03-7.02 154.03-7.74Z" transform="translate(-2.069999933242798, 36.22999954223633)"></path></g> <!----> <!----> <!----> <!----> <!----> <!----> <!----></g></g> <g data-gra="path-slogan" fill-rule="" class="tp-slogan iconsvg-slogansvg" fill="#a808ff" transform="translate(5,47.040000915527344)"><rect x="0" height="1" y="3.9750003814697266" width="30.52444076538086"></rect> <rect height="1" y="3.9750003814697266" width="30.52444076538086" x="134.0755500793457"></rect> <g transform="translate(33.52444076538086,0)"><g transform="scale(1)"><path d="M7.31-3.61L4.69-3.61L4.69-4.59L8.44-4.59L8.44 0L7.69 0L7.41-1.08Q6.42 0.09 4.59 0.14L4.59 0.14Q2.86 0.14 1.92-0.75L1.92-0.75Q0.52-2.06 0.56-4.36L0.56-4.36Q0.89-8.63 4.64-8.81L4.64-8.81Q7.83-8.63 8.30-6L8.30-6L7.17-6Q6.70-7.78 4.59-7.83L4.59-7.83Q1.92-7.64 1.78-4.31L1.78-4.31Q1.78-0.75 4.64-0.75L4.64-0.75Q5.67-0.75 6.42-1.31L6.42-1.31Q7.36-2.06 7.31-3.61L7.31-3.61ZM15.89-3.19L15.89-8.58L17.06-8.58L17.06-3.05Q16.92 0.05 13.55 0.14L13.55 0.14Q10.41 0.05 10.27-2.86L10.27-2.86L10.27-8.58L11.44-8.58L11.44-3.19Q11.48-0.84 13.59-0.80L13.59-0.80Q15.89-0.84 15.89-3.19L15.89-3.19ZM19.03-8.58L20.20-8.58L20.20 0L19.03 0L19.03-8.58ZM23.02-1.03L28.31-1.03L28.31 0L21.56 0L21.56-0.94L26.81-7.59L21.94-7.59L21.94-8.58L28.31-8.58L28.31-7.59L23.02-1.03ZM30.61-5.06L35.11-5.06L35.11-8.58L36.28-8.58L36.28 0L35.11 0L35.11-3.98L30.61-3.98L30.61 0L29.44 0L29.44-8.58L30.61-8.58L30.61-5.06ZM44.86-4.27L44.86-4.27Q44.67-7.64 41.86-7.83L41.86-7.83Q39-7.69 38.86-4.27L38.86-4.27Q39-0.94 41.86-0.80L41.86-0.80Q44.67-0.98 44.86-4.27ZM46.03-4.27L46.03-4.27Q45.75 0 41.86 0.14L41.86 0.14Q37.92 0 37.64-4.27L37.64-4.27Q37.88-8.72 41.86-8.81L41.86-8.81Q45.75-8.67 46.03-4.27ZM53.06-3.19L53.06-8.58L54.23-8.58L54.23-3.05Q54.09 0.05 50.72 0.14L50.72 0.14Q47.58 0.05 47.44-2.86L47.44-2.86L47.44-8.58L48.61-8.58L48.61-3.19Q48.66-0.84 50.77-0.80L50.77-0.80Q53.06-0.84 53.06-3.19L53.06-3.19ZM64.88-3.89L60.66-3.89L60.66 0L59.48 0L59.48-8.58L65.44-8.58L65.44-7.59L60.66-7.59L60.66-4.92L64.88-4.92L64.88-3.89ZM72.28 0L71.44-2.48L67.97-2.48L67.08 0L65.91 0L69.14-8.58L70.45-8.58L73.55 0L72.28 0ZM69.70-7.31L68.34-3.52L71.02-3.52L69.75-7.31L69.70-7.31ZM75.98-8.58L80.30-1.64L80.30-8.58L81.42-8.58L81.42 0L80.11 0L75.75-6.94L75.70-6.94L75.70 0L74.58 0L74.58-8.58L75.98-8.58ZM86.44-7.64L84.38-7.64L84.38-4.97L86.44-4.97Q88.27-4.92 88.22-6.38L88.22-6.38Q88.22-7.64 86.44-7.64L86.44-7.64ZM86.91 0L83.20 0L83.20-8.58L87-8.58Q89.30-8.48 89.39-6.42L89.39-6.42Q89.39-5.16 88.27-4.64L88.27-4.64Q89.86-4.08 89.86-2.53L89.86-2.53Q89.72-0.09 86.91 0L86.91 0ZM86.63-3.98L84.38-3.98L84.38-0.98L86.86-0.98Q88.64-1.03 88.69-2.53L88.69-2.53Q88.69-3.98 86.63-3.98L86.63-3.98ZM96.84 0L96-2.48L92.53-2.48L91.64 0L90.47 0L93.70-8.58L95.02-8.58L98.11 0L96.84 0ZM94.27-7.31L92.91-3.52L95.58-3.52L94.31-7.31L94.27-7.31Z" transform="translate(-0.5609879032258065, 8.8125)"></path></g></g></g></g></g><defs v-gra="od"></defs></svg>